<svg width="694" height="577" viewBox="0 0 694 577" fill="none" xmlns="http://www.w3.org/2000/svg">
<g filter="url(#filter0_i_651_5422)">
<path d="M509.515 0C637.036 0 773.749 25.1676 882.557 92.03C953.219 135.812 1019 202.153 1019 288.616C1019 389.576 929.954 462.992 844.651 505.962C743.149 556.848 623.203 577 509.485 577C381.994 577 245.55 552.122 136.713 484.999C66.051 441.217 0 374.876 0 288.616C0 187.192 88.8066 114.037 174.35 71.0377C276.151 20.1805 395.827 0 509.515 0ZM508.437 30.6767C389.869 30.6767 262.078 52.162 159.199 112.182C94.4955 149.672 30.6002 208.677 30.6002 287.05C30.6002 379.109 117.221 443.536 194.65 480.534C290.493 525.853 402.564 543.482 508.437 543.482C627.245 543.482 755.065 521.939 857.945 461.919C922.379 424.167 986.543 365.453 986.543 287.079C986.543 194.817 900.162 130.303 822.494 93.6248C726.621 48.2186 614.55 30.6767 508.437 30.6767ZM60.931 223.348L256.12 191.106L314.865 67.6163L373.371 191.106L568.53 223.348L373.371 255.881L314.865 379.631L256.12 255.881L60.931 223.348ZM490.023 317.437L576.105 302.795L601.825 246.95L627.544 302.795L713.656 317.437L627.544 331.847L601.825 387.721L576.105 331.847L490.023 317.437ZM668.175 168.548L754.257 154.137L779.977 98.061L805.697 154.137L891.779 168.548L805.697 183.219L779.977 239.093L754.227 183.219L668.175 168.548ZM576.105 432.837L661.917 418.426L687.637 362.321L713.626 418.426L799.708 432.837L713.626 447.508L687.637 503.382L661.917 447.508L576.105 432.837ZM311.631 453.017L397.713 438.607L423.703 382.444L449.392 438.607L535.504 453.017L449.392 467.689L423.703 523.562L397.713 467.689L311.631 453.017ZM744.526 315.146L830.338 300.446L856.058 244.602L882.048 300.446L968.129 315.146L882.048 329.557L856.028 385.343L830.309 329.528L744.526 315.146Z" fill="#1971D4"/>
</g>
<defs>
<filter id="filter0_i_651_5422" x="0" y="0" width="1019" height="589" filterUnits="userSpaceOnUse" color-interpolation-filters="sRGB">
<feFlood flood-opacity="0" result="BackgroundImageFix"/>
<feBlend mode="normal" in="SourceGraphic" in2="BackgroundImageFix" result="shape"/>
<feColorMatrix in="SourceAlpha" type="matrix" values="0 0 0 0 0 0 0 0 0 0 0 0 0 0 0 0 0 0 127 0" result="hardAlpha"/>
<feOffset dy="12"/>
<feGaussianBlur stdDeviation="7.5"/>
<feComposite in2="hardAlpha" operator="arithmetic" k2="-1" k3="1"/>
<feColorMatrix type="matrix" values="0 0 0 0 0.0110243 0 0 0 0 0.254856 0 0 0 0 0.529167 0 0 0 0.9 0"/>
<feBlend mode="normal" in2="shape" result="effect1_innerShadow_651_5422"/>
</filter>
</defs>
</svg>
