<svg width="180" height="25" viewBox="0 0 180 25" fill="none" xmlns="http://www.w3.org/2000/svg">
<path d="M70.4222 4.72338H75.1225V15.6529C75.1225 16.658 75.7194 17.0641 76.726 17.0641H84.7322C85.7376 17.0641 86.3357 16.658 86.3357 15.6529V4.72338H91.0335V16.3703C91.0335 18.8423 88.8442 20.7152 86.3344 20.7152H75.1213C72.6226 20.7152 70.421 18.8316 70.421 16.3703V4.72338H70.4222ZM48.139 15.782H52.8161C52.8931 16.6924 53.4459 17.0653 54.3755 17.0653H62.9688C63.765 17.0653 64.2066 16.4035 64.2066 15.6849C64.2066 14.7224 63.4776 14.2181 62.5371 14.2181H53.1695C50.0837 14.2181 47.9825 12.7619 47.9825 9.61516C47.9825 7.97786 48.6466 6.24348 50.151 5.36504C51.0903 4.80744 52.24 4.7222 53.3249 4.7222H64.3607C66.7506 4.7222 68.6732 6.3595 68.6512 8.71423V9.55951H63.8201C63.776 8.83143 63.3333 8.36143 62.5383 8.36143H54.3877C53.5585 8.36143 52.8613 8.7675 52.8613 9.65659C52.8613 10.535 53.5695 10.8665 54.3767 10.8665H64.3631C67.592 10.8665 69.2628 12.9549 69.2628 15.9951C69.2628 18.9062 67.8685 20.714 64.7496 20.714H52.8173C50.0959 20.714 48.172 19.6556 48.15 16.851L48.139 15.782ZM159.378 4.72338H164.089V15.6529C164.089 16.658 164.687 17.0641 165.692 17.0641H173.697C174.703 17.0641 175.301 16.658 175.301 15.6529V4.72338H180V16.3703C180 18.8304 177.8 20.7152 175.301 20.7152H164.087C161.577 20.7152 159.375 18.8423 159.375 16.3703L159.378 4.72338ZM119.732 17.5578L117.885 20.714H112.666L121.635 4.72338H127.772L136.742 20.714H131.521L129.674 17.5578H119.732ZM124.697 8.76987L121.734 14.1009H127.673L124.697 8.76987ZM92.8278 4.72338H107.315C110.422 4.72338 112.722 5.7723 112.722 9.14397C112.722 10.6001 112.127 11.874 110.8 12.5914C112.258 13.3408 113.088 14.7307 113.088 16.336C113.088 18.5948 111.593 20.714 109.085 20.714H92.8278V4.72338ZM97.6381 17.0641H106.574C107.446 17.0641 108.254 16.6048 108.254 15.6837C108.254 14.7733 107.436 14.3033 106.574 14.3033H97.6381V17.0641ZM97.6381 10.9967H106.574C107.38 10.9967 107.89 10.451 107.89 9.69092C107.89 8.93088 107.392 8.36498 106.574 8.36498H97.6381V10.9967ZM137.636 4.72338H153.383C156.526 4.72338 158.041 7.20715 158.041 9.97979C158.041 11.7769 157.367 13.458 155.663 14.3163C157.323 15.0965 158.085 16.3277 158.085 18.1272V20.7164H153.383V18.1284C153.383 16.6083 152.511 16.0625 150.995 16.0625H142.482V20.7164H137.638L137.636 4.72338ZM142.481 12.4198H151.294C152.432 12.4198 153.196 11.4348 153.196 10.3965C153.196 9.06939 152.179 8.36262 150.863 8.36262H142.481V12.4198ZM20.8131 0.720703C26.0222 0.720703 31.6067 1.74831 36.0514 4.47832C38.9378 6.26597 41.6249 8.97468 41.6249 12.505C41.6249 16.6272 37.9875 19.6248 34.503 21.3793C30.3567 23.457 25.4571 24.2798 20.8118 24.2798C15.604 24.2798 10.0304 23.2641 5.58456 20.5234C2.6981 18.7357 0 16.027 0 12.505C0 8.3638 3.62764 5.37688 7.12197 3.6212C11.2804 1.54468 16.1691 0.720703 20.8131 0.720703ZM20.769 1.97324C15.9257 1.97324 10.7056 2.85049 6.50309 5.30112C3.86003 6.83187 1.24998 9.24105 1.24998 12.4411C1.24998 16.1999 4.78834 18.8304 7.95121 20.3411C11.8663 22.1915 16.4442 22.9113 20.769 22.9113C25.6222 22.9113 30.8435 22.0316 35.046 19.581C37.6781 18.0396 40.2991 15.6423 40.2991 12.4422C40.2991 8.67516 36.7705 6.04104 33.5979 4.54344C29.6816 2.68949 25.1036 1.97324 20.769 1.97324ZM2.48896 9.84009L10.4622 8.52362L12.8619 3.4815L15.2517 8.52362L23.2238 9.84009L15.2517 11.1684L12.8619 16.2212L10.4622 11.1684L2.48896 9.84009ZM20.0169 13.6818L23.5332 13.0839L24.5838 10.8038L25.6344 13.0839L29.152 13.6818L25.6344 14.2702L24.5838 16.5515L23.5332 14.2702L20.0169 13.6818ZM27.2942 7.60257L30.8105 7.01418L31.8611 4.72457L32.9117 7.01418L36.4281 7.60257L32.9117 8.20161L31.8611 10.4829L30.8093 8.20161L27.2942 7.60257ZM23.5332 18.3936L27.0385 17.8052L28.0892 15.5144L29.1508 17.8052L32.6671 18.3936L29.1508 18.9926L28.0892 21.274L27.0385 18.9926L23.5332 18.3936ZM12.7298 19.2176L16.2461 18.6292L17.3077 16.336L18.3571 18.6292L21.8747 19.2176L18.3571 19.8166L17.3077 22.0979L16.2461 19.8166L12.7298 19.2176ZM30.413 13.5882L33.9183 12.988L34.9689 10.7079L36.0306 12.988L39.5469 13.5882L36.0306 14.1766L34.9677 16.4544L33.9171 14.1754L30.413 13.5882Z" fill="#1971D4"/>
</svg>
